Results
version=1
nRows=24
nColumns=24
inDegrees=yes
endheader
time	pelvis_tilt	pelvis_list	pelvis_rotation	pelvis_tx	pelvis_ty	pelvis_tz	hip_flexion_r	hip_adduction_r	hip_rotation_r	knee_angle_r	ankle_angle_r	subtalar_angle_r	mtp_angle_r	hip_flexion_l	hip_adduction_l	hip_rotation_l	knee_angle_l	ankle_angle_l	subtalar_angle_l	mtp_angle_l	lumbar_extension	lumbar_bending	lumbar_rotation
      0.52900000	     -8.21980115	      2.46391001	     -2.79121041	     -0.77993563	      1.03666350	      0.29152298	     33.55324110	     -0.68950470	     -2.55538101	    -10.13780444	      3.92777631	      0.59256331	     14.96336380	     -6.40009256	      4.24777438	      5.31429406	     -4.97040209	     14.52934617	     -1.04024650	      5.93600858	     -4.75389490	     -2.39340638	     -3.69746955
      0.53316667	     -8.16682749	      2.47699392	     -2.71351363	     -0.77367542	      1.03587334	      0.29179834	     33.47933806	     -0.66041887	     -2.34267313	    -10.27446080	      3.89040776	      0.38872167	     14.95984401	     -6.47263038	      4.26551640	      5.08264135	     -5.72499150	     14.83570856	     -0.54281788	      6.00658972	     -4.77705911	     -2.38035957	     -3.74425766
      0.53733333	     -8.10158534	      2.47182516	     -2.64377875	     -0.76737270	      1.03514892	      0.29206947	     33.39701253	     -0.61392434	     -2.14753520	    -10.50246506	      3.81427746	      0.18159243	     14.96330460	     -6.52036044	      4.25990764	      4.74652749	     -6.56601707	     15.17655531	      0.08269229	      6.12875288	     -4.81076461	     -2.32701499	     -3.75123376
      0.54150000	     -8.03176712	      2.47344414	     -2.56966210	     -0.76107631	      1.03446822	      0.29235208	     33.31409676	     -0.57468863	     -1.93217894	    -10.80753629	      3.70963946	     -0.08017767	     14.97098627	     -6.52695014	      4.25363176	      4.36366184	     -7.49939698	     15.51635147	      0.78859219	      6.29738212	     -4.84843630	     -2.28232250	     -3.77549296
      0.54566667	     -7.94872583	      2.46259919	     -2.49472087	     -0.75474167	      1.03385246	      0.29263273	     33.21166777	     -0.52506635	     -1.71264885	    -11.17329991	      3.56843309	     -0.38394167	     14.98263429	     -6.51931759	      4.22615588	      3.93468786	     -8.49935617	     15.83771233	      1.56120160	      6.50326769	     -4.90039488	     -2.21835306	     -3.78510274
      0.54983333	     -7.89211786	      2.45758686	     -2.41616419	     -0.74839354	      1.03322065	      0.29293596	     33.14380056	     -0.47986704	     -1.48587359	    -11.61039504	      3.38939462	     -0.73397382	     14.99768357	     -6.43189005	      4.18989931	      3.43118038	     -9.60578240	     16.17595112	      2.44449726	      6.74937269	     -4.90906165	     -2.16551089	     -3.79577880
      0.55400000	     -7.79540365	      2.43038995	     -2.34588553	     -0.74202791	      1.03270269	      0.29326011	     33.02649566	     -0.41183256	     -1.26407264	    -12.08802394	      3.16552222	     -1.11890652	     15.01366251	     -6.34466068	      4.11687263	      2.84242783	    -10.80476999	     16.49620699	      3.42378911	      7.04182329	     -4.96902598	     -2.08230342	     -3.79834364
      0.55816667	     -7.74266745	      2.41299498	     -2.26992519	     -0.73564684	      1.03214187	      0.29359871	     32.96393091	     -0.35273196	     -1.03694050	    -12.62942809	      2.91220768	     -1.52827523	     15.02869638	     -6.17008967	      4.03643483	      2.22325734	    -12.08747614	     16.78802777	      4.44904073	      7.36649354	     -4.96726267	     -2.00827498	     -3.79788831
      0.56233333	     -7.63430033	      2.37234599	     -2.20175792	     -0.72927737	      1.03170637	      0.29396277	     32.83989892	     -0.27088718	     -0.81490729	    -13.20607844	      2.61822067	     -1.96081691	     15.04001072	     -6.01820439	      3.91333564	      1.53305541	    -13.44821016	     17.06594401	      5.55907294	      7.73475124	     -5.04513014	     -1.90669623	     -3.78847734
      0.56650000	     -7.56381430	      2.34342548	     -2.11648673	     -0.72292243	      1.03124812	      0.29434081	     32.76141658	     -0.20462794	     -0.58783144	    -13.82741266	      2.30368730	     -2.42018136	     15.04368769	     -5.77222819	      3.78077966	      0.85586655	    -14.91614693	     17.30771845	      6.69679329	      8.10161844	     -5.08080056	     -1.82868129	     -3.78636232
      0.57066667	     -7.45880311	      2.28813769	     -2.05214086	     -0.71653698	      1.03088890	      0.29476682	     32.64395675	     -0.10697315	     -0.39737088	    -14.47283351	      1.95851860	     -2.87047453	     15.06375406	     -5.54213493	      3.59931538	      0.11650818	    -16.41862158	     17.38665393	      7.77799003	     11.53601505	     -5.14068019	     -1.70424560	     -3.75548048
      0.57483333	     -7.39477546	      2.24113830	     -1.97304365	     -0.71016924	      1.03048840	      0.29521170	     32.57555446	     -0.02036442	     -0.19872041	    -15.15382877	      1.63861629	     -3.33167588	     15.04924471	     -5.21646484	      3.40170358	     -0.61705048	    -18.03168417	     17.49758736	      8.93607777	     11.63471544	     -5.14736115	     -1.60708697	     -3.75164600
      0.57900000	     -7.30788025	      2.18307518	     -1.90263085	     -0.70382640	      1.03015490	      0.29568981	     32.48854787	      0.07857386	     -0.01593807	    -15.86241879	      1.30147727	     -3.78356995	     15.02415945	     -4.88360223	      3.17217174	     -1.35259273	    -19.70041151	     17.54058965	     10.09183232	     11.79598479	     -5.19719753	     -1.48834379	     -3.72487265
      0.58316667	     -7.23067958	      2.11810219	     -1.82649868	     -0.69749437	      1.02984779	      0.29618560	     32.41157367	      0.18156002	      0.15251392	    -16.58706192	      0.97640880	     -4.22662907	     14.98895599	     -4.50440039	      2.91424826	     -2.06120022	    -21.43355420	     17.49739812	     11.20235355	     12.00478806	     -5.23189271	     -1.36520861	     -3.70316419
      0.58733333	     -7.13891906	      2.04730968	     -1.75466815	     -0.69118599	      1.02960544	      0.29670732	     32.32223732	      0.28950485	      0.30147413	    -17.32845276	      0.67445029	     -4.64929785	     14.94312396	     -4.11060511	      2.63129976	     -2.74480319	    -23.21320443	     17.35717836	     12.26657819	     12.25497998	     -5.28593515	     -1.23464929	     -3.67426666
      0.59150000	     -7.05490720	      1.96400012	     -1.69394679	     -0.68489123	      1.02937890	      0.29725620	     32.24743952	      0.41374584	      0.43769696	    -18.09242706	      0.39120407	     -5.06394961	     14.87672607	     -3.68253106	      2.31852862	     -3.40804081	    -25.03322935	     17.12438901	     13.26280520	     12.58711719	     -5.33998150	     -1.06052657	     -3.64049767
      0.59566667	     -6.92914093	      1.86489779	     -1.60155016	     -0.67863581	      1.02930024	      0.29779760	     32.09982619	      0.53914232	      0.55829957	    -18.80808922	      0.12070135	     -5.53308593	     14.73867672	     -3.26574821	      1.96974532	     -3.98940012	    -26.89407019	     16.76354619	     14.22648513	     13.22763509	     -5.45522220	     -0.90901099	     -3.60846850
      0.59983333	     -6.91885604	      1.84026517	     -1.53191688	     -0.67241728	      1.02899682	      0.29834918	     32.13945184	      0.59282637	      0.62711825	    -19.65331227	      0.03804273	     -5.71434084	     14.68924092	     -2.70331039	      1.70558483	     -4.48442770	    -28.77210033	     16.29762136	     15.00731471	     13.45592251	     -5.41094094	     -0.83573157	     -3.57872723
      0.60400000	     -6.82760055	      1.73133122	     -1.46474509	     -0.66620493	      1.02890721	      0.29894693	     32.03218927	      0.73407392	      0.70790506	    -20.38033185	     -0.11004311	     -6.01214940	     14.60606085	     -2.18758207	      1.31617915	     -5.03905062	    -30.73021407	     15.82067936	     15.80104551	     13.79394894	     -5.46446202	     -0.67792351	     -3.55316441
      0.60816667	     -6.72945312	      1.63288220	     -1.38599485	     -0.66004282	      1.02888910	      0.29950222	     31.92081818	      0.85469293	      0.75862739	    -21.12254977	     -0.17370787	     -6.29594595	     13.48616908	     -1.67123083	      0.94772880	     -5.45149154	    -32.65095567	     15.08825774	     16.40993343	     17.99850619	     -5.55210279	     -0.50034237	     -3.51297322
      0.61233333	     -6.67454973	      1.54733100	     -1.31804295	     -0.65390121	      1.02881171	      0.30006936	     31.85862421	      0.96072191	      0.77643025	    -21.86788482	     -0.13867016	     -6.43282735	     13.47837363	     -1.08002783	      0.58573809	     -5.84185051	    -34.61785153	     14.37176965	     16.97419582	     18.03051153	     -5.57501011	     -0.35658578	     -3.48020780
      0.61650000	     -6.61391965	      1.45252207	     -1.24823871	     -0.64780506	      1.02878561	      0.30062427	     31.77526224	      1.07223762	      0.77739449	    -22.58269949	     -0.07413069	     -6.58410716	     13.45746278	     -0.47074246	      0.21012360	     -6.18268687	    -36.59790005	     13.57904672	     17.47016975	     18.08060949	     -5.61200336	     -0.19313173	     -3.44404281
      0.62066667	     -6.53142721	      1.33829342	     -1.17836103	     -0.64174984	      1.02885190	      0.30116589	     31.64656898	      1.19761535	      0.75234945	    -23.25379689	      0.03913259	     -6.70459352	     13.42648782	      0.13319775	     -0.18731879	     -6.47606383	    -38.58171224	     12.72316814	     17.87381944	     18.13797832	     -5.68258332	     -0.00620269	     -3.40670340
      0.62483333	     -6.47022237	      1.23784597	     -1.11315519	     -0.63573804	      1.02890474	      0.30170046	     31.53307836	      1.30786111	      0.71222646	    -23.90711798	      0.21795177	     -6.78180635	     13.38914360	      0.77714297	     -0.56533749	     -6.71791801	    -40.56003692	     11.81356557	     18.17588374	     18.19069220	     -5.73144592	      0.16546787	     -3.36572648
